<svg xmlns="http://www.w3.org/2000/svg" viewBox="0 0 64 64">
  <defs>
    <linearGradient id="primaryGradient" x1="0%" y1="0%" x2="100%" y2="100%">
      <stop offset="0%" style="stop-color:#0055c9;stop-opacity:1" />
      <stop offset="100%" style="stop-color:#236def;stop-opacity:1" />
    </linearGradient>
  </defs>
  <rect width="64" height="64" rx="16" fill="url(#primaryGradient)" />
  <path d="M42 20h-4v-2c0-2.2-1.8-4-4-4h-4c-2.2 0-4 1.8-4 4v2h-4c-2.2 0-4 1.8-4 4v18c0 2.2 1.8 4 4 4h20c2.2 0 4-1.8 4-4v-18c0-2.2-1.8-4-4-4zm-14-2h4v2h-4v-2zm11 19h-5v5h-2v-5h-5v-2h5v-5h2v5h5v2z" fill="white" />
</svg>
